<?xml version="1.0" standalone="no"?>
<!DOCTYPE svg PUBLIC "-//W3C//DTD SVG 20010904//EN"
 "http://www.w3.org/TR/2001/REC-SVG-20010904/DTD/svg10.dtd">
<svg version="1.0" xmlns="http://www.w3.org/2000/svg"
 width="225.000000pt" height="225.000000pt" viewBox="0 0 225.000000 225.000000"
 preserveAspectRatio="xMidYMid meet">
<metadata>
Created by potrace 1.14, written by Peter Selinger 2001-2017
</metadata>
<g transform="translate(0.000000,225.000000) scale(0.100000,-0.100000)"
fill="#000000" stroke="none">
<path d="M1188 1857 c-20 -135 -56 -262 -108 -379 -21 -49 -37 -88 -37 -88 1
0 24 7 51 15 64 19 163 19 222 -1 25 -8 48 -14 50 -12 2 3 -12 44 -32 94 -54
139 -82 235 -105 362 -11 64 -22 118 -23 119 -1 1 -9 -48 -18 -110z"/>
<path d="M621 1108 c-26 -95 -58 -171 -99 -232 l-29 -42 111 4 c61 2 134 0
162 -5 l52 -10 -46 71 c-26 39 -63 118 -84 180 -22 61 -40 112 -42 113 -2 2
-13 -34 -25 -79z"/>
<path d="M1344 1143 c-4 -16 -15 -45 -25 -65 -13 -25 -19 -59 -19 -103 l0 -65
90 0 c50 0 90 3 90 6 0 4 -22 45 -49 93 -27 47 -54 103 -61 124 -6 20 -13 37
-16 37 -2 0 -7 -12 -10 -27z"/>
<path d="M843 1035 c-11 -55 -24 -110 -28 -122 -7 -22 -5 -23 50 -23 51 0 56
2 50 18 -15 33 -35 117 -36 147 -3 85 -15 79 -36 -20z"/>
<path d="M1569 1036 c-20 -99 -56 -183 -106 -244 l-37 -45 40 9 c47 11 206 12
252 2 l34 -8 -21 33 c-41 62 -78 143 -110 240 -18 53 -33 97 -34 97 -1 0 -9
-38 -18 -84z"/>
<path d="M990 963 c-11 -76 -27 -137 -55 -205 -7 -17 6 -18 190 -18 108 0 195
3 193 8 -2 4 -16 31 -31 59 -32 62 -57 151 -57 205 l0 38 -114 0 -114 0 -12
-87z"/>
</g>
</svg>
